<svg width="17" height="18" viewBox="0 0 17 18" fill="none" xmlns="http://www.w3.org/2000/svg">
<path d="M10.276 2.72111C10.276 2.3024 10.1096 1.90084 9.81356 1.60477C9.51749 1.30869 9.11593 1.14236 8.69722 1.14236C8.27851 1.14236 7.87695 1.30869 7.58087 1.60477C7.2848 1.90084 7.11847 2.3024 7.11847 2.72111H6.06597C6.06597 2.02326 6.34319 1.35399 6.83664 0.860536C7.3301 0.367081 7.99937 0.0898609 8.69722 0.0898609C9.39507 0.0898609 10.0643 0.367081 10.5578 0.860536C11.0512 1.35399 11.3285 2.02326 11.3285 2.72111H16.0647C16.2043 2.72111 16.3381 2.77656 16.4368 2.87525C16.5355 2.97394 16.591 3.10779 16.591 3.24736C16.591 3.38693 16.5355 3.52078 16.4368 3.61948C16.3381 3.71817 16.2043 3.77361 16.0647 3.77361H15.4816L14.1176 15.5932C14.0582 16.1062 13.8123 16.5794 13.4267 16.9229C13.0411 17.2664 12.5427 17.4562 12.0263 17.4561H5.36816C4.85175 17.4562 4.35333 17.2664 3.96772 16.9229C3.58211 16.5794 3.33623 16.1062 3.27684 15.5932L1.91175 3.77361H1.32972C1.20655 3.77365 1.08727 3.73049 0.992644 3.65164C0.898023 3.57279 0.834057 3.46324 0.811887 3.34209L0.803467 3.24736C0.803467 3.10779 0.858911 2.97394 0.957602 2.87525C1.05629 2.77656 1.19015 2.72111 1.32972 2.72111H10.276ZM14.4207 3.77361H2.97267L4.32197 15.4721C4.35168 15.7287 4.4747 15.9654 4.66761 16.1372C4.86052 16.309 5.10986 16.4038 5.36816 16.4036H12.0263C12.2844 16.4035 12.5335 16.3086 12.7262 16.1368C12.9189 15.9651 13.0417 15.7286 13.0714 15.4721L14.4207 3.77361ZM7.11847 6.40486C7.37633 6.40486 7.59209 6.568 7.6363 6.78271L7.64472 6.86586V13.3124C7.64472 13.5661 7.40896 13.7724 7.11847 13.7724C6.8606 13.7724 6.64484 13.6092 6.60064 13.3945L6.59222 13.3114V6.86691C6.59222 6.6122 6.82798 6.40591 7.11847 6.40591V6.40486ZM10.276 6.40486C10.5338 6.40486 10.7496 6.568 10.7938 6.78271L10.8022 6.86586V13.3124C10.8022 13.5661 10.5665 13.7724 10.276 13.7724C10.0181 13.7724 9.80234 13.6092 9.75814 13.3945L9.74972 13.3114V6.86691C9.74972 6.6122 9.98548 6.40591 10.276 6.40591V6.40486Z" fill="#F25F4C"/>
</svg>
